<svg width="93" height="24" viewBox="0 0 93 24" fill="none" xmlns="http://www.w3.org/2000/svg">
<path d="M87.5566 19.4238C86.5801 19.4238 85.737 19.196 85.0273 18.7402C84.3242 18.278 83.7806 17.6432 83.3965 16.8359C83.0124 16.0221 82.8203 15.0944 82.8203 14.0527V13.8379C82.8203 12.7962 83.0124 11.8717 83.3965 11.0645C83.7806 10.2507 84.3242 9.61263 85.0273 9.15039C85.737 8.68815 86.5736 8.45703 87.5371 8.45703C88.5137 8.45703 89.3535 8.68815 90.0566 9.15039C90.7663 9.61263 91.3132 10.2474 91.6973 11.0547C92.0814 11.862 92.2734 12.7897 92.2734 13.8379V14.0527C92.2734 15.1009 92.0814 16.0319 91.6973 16.8457C91.3132 17.653 90.7695 18.2845 90.0664 18.7402C89.3633 19.196 88.5267 19.4238 87.5566 19.4238ZM87.5566 17.9199C88.1686 17.9199 88.6797 17.7539 89.0898 17.4219C89.5065 17.0833 89.819 16.6243 90.0273 16.0449C90.2422 15.459 90.3496 14.7949 90.3496 14.0527V13.8379C90.3496 13.0957 90.2422 12.4349 90.0273 11.8555C89.819 11.2695 89.5065 10.8105 89.0898 10.4785C88.6732 10.14 88.1556 9.9707 87.5371 9.9707C86.9251 9.9707 86.4108 10.14 85.9941 10.4785C85.5775 10.8105 85.265 11.2695 85.0566 11.8555C84.8483 12.4349 84.7441 13.0957 84.7441 13.8379V14.0527C84.7441 14.7949 84.8483 15.459 85.0566 16.0449C85.265 16.6243 85.5775 17.0833 85.9941 17.4219C86.4173 17.7539 86.9382 17.9199 87.5566 17.9199Z" fill="black"/>
<path d="M74.6172 19.2188V17.9883L76.209 17.7148V10.166L74.6172 9.89258V8.65234H77.9277L78.0938 10L78.1133 10.1855C78.4128 9.64518 78.7806 9.22201 79.2168 8.91602C79.6595 8.61003 80.1641 8.45703 80.7305 8.45703C80.9323 8.45703 81.1374 8.47656 81.3457 8.51562C81.5605 8.54818 81.7135 8.58073 81.8047 8.61328L81.5508 10.4004L80.2129 10.3223C79.7051 10.2897 79.2786 10.4069 78.9336 10.6738C78.5885 10.9342 78.3216 11.2858 78.1328 11.7285V17.7148L79.7246 17.9883V19.2188H74.6172Z" fill="black"/>
<path d="M71.2383 19.3848C70.457 19.3848 69.8353 19.1569 69.373 18.7012C68.9173 18.2389 68.6895 17.5033 68.6895 16.4941V10.0781H67.0195V8.65234H68.6895V6.10352H70.6133V8.65234H72.9082V10.0781H70.6133V16.4941C70.6133 17.002 70.7142 17.3763 70.916 17.6172C71.1178 17.8581 71.388 17.9785 71.7266 17.9785C71.9544 17.9785 72.2083 17.959 72.4883 17.9199C72.7682 17.8743 72.9863 17.8353 73.1426 17.8027L73.4062 19.0625C73.1263 19.1471 72.7812 19.222 72.3711 19.2871C71.9674 19.3522 71.5898 19.3848 71.2383 19.3848Z" fill="black"/>
<path d="M54.7734 19.2188V17.9883L56.3652 17.7148V10.166L54.7734 9.89258V8.65234H58.084L58.2207 10.2246C58.5723 9.66471 59.0117 9.23177 59.5391 8.92578C60.0729 8.61328 60.6784 8.45703 61.3555 8.45703C62.4948 8.45703 63.377 8.79232 64.002 9.46289C64.627 10.127 64.9395 11.1556 64.9395 12.5488V17.7148L66.5312 17.9883V19.2188H61.4238V17.9883L63.0156 17.7148V12.5879C63.0156 11.6569 62.8301 10.9961 62.459 10.6055C62.0944 10.2148 61.5345 10.0195 60.7793 10.0195C60.2259 10.0195 59.7344 10.153 59.3047 10.4199C58.8815 10.6868 58.543 11.0514 58.2891 11.5137V17.7148L59.8809 17.9883V19.2188H54.7734Z" fill="black"/>
<path d="M49.2363 19.4238C48.2598 19.4238 47.4102 19.2025 46.6875 18.7598C45.9648 18.3105 45.4049 17.6888 45.0078 16.8945C44.6172 16.1003 44.4219 15.1823 44.4219 14.1406V13.7109C44.4219 12.7083 44.627 11.8132 45.0371 11.0254C45.4538 10.2311 46.0039 9.60612 46.6875 9.15039C47.3776 8.68815 48.1296 8.45703 48.9434 8.45703C49.8939 8.45703 50.6882 8.65234 51.3262 9.04297C51.9707 9.43359 52.4557 9.98372 52.7812 10.6934C53.1068 11.3965 53.2695 12.2266 53.2695 13.1836V14.3848H46.4141L46.3848 14.4336C46.3978 15.1107 46.515 15.7129 46.7363 16.2402C46.9642 16.7611 47.2897 17.1712 47.7129 17.4707C48.1361 17.7702 48.6439 17.9199 49.2363 17.9199C49.8874 17.9199 50.457 17.8288 50.9453 17.6465C51.4401 17.4577 51.8665 17.2005 52.2246 16.875L52.9766 18.125C52.599 18.4896 52.0977 18.7988 51.4727 19.0527C50.8542 19.3001 50.1087 19.4238 49.2363 19.4238ZM46.4727 12.8809H51.3457V12.627C51.3457 12.1191 51.2546 11.6667 51.0723 11.2695C50.8965 10.8659 50.6296 10.5501 50.2715 10.3223C49.9199 10.0879 49.4772 9.9707 48.9434 9.9707C48.5137 9.9707 48.123 10.0977 47.7715 10.3516C47.4199 10.599 47.1302 10.9375 46.9023 11.3672C46.6745 11.7969 46.5247 12.2852 46.4531 12.832L46.4727 12.8809Z" fill="black"/>
<path d="M32.8789 19.2188V17.7637L40.2715 6.50391H34.7441L34.5684 8.33984H33.0254V5H42.4883V6.41602L35.0566 17.7246H41.1016L41.2773 15.7031H42.8105V19.2188H32.8789Z" fill="black"/>
<path d="M22 0C23.1046 0 24 0.895431 24 2V22C24 23.1046 23.1046 24 22 24H2C0.895431 24 3.22133e-08 23.1046 0 22V2C0 0.895431 0.895431 3.22128e-08 2 0H22ZM7.14648 5V8.33984H8.68945L8.86523 6.50391H14.3926L7 17.7637V19.2188H16.9316V15.7031H15.3984L15.2227 17.7246H9.17773L16.6094 6.41602V5H7.14648Z" fill="black"/>
</svg>
