<svg width="93" height="30" viewBox="0 0 93 30" fill="none" xmlns="http://www.w3.org/2000/svg">
<path d="M87.6777 22.4238C86.7012 22.4238 85.8581 22.196 85.1484 21.7402C84.4453 21.278 83.9017 20.6432 83.5176 19.8359C83.1335 19.0221 82.9414 18.0944 82.9414 17.0527V16.8379C82.9414 15.7962 83.1335 14.8717 83.5176 14.0645C83.9017 13.2507 84.4453 12.6126 85.1484 12.1504C85.8581 11.6882 86.6947 11.457 87.6582 11.457C88.6348 11.457 89.4746 11.6882 90.1777 12.1504C90.8874 12.6126 91.4342 13.2474 91.8184 14.0547C92.2025 14.862 92.3945 15.7897 92.3945 16.8379V17.0527C92.3945 18.1009 92.2025 19.0319 91.8184 19.8457C91.4342 20.653 90.8906 21.2845 90.1875 21.7402C89.4844 22.196 88.6478 22.4238 87.6777 22.4238ZM87.6777 20.9199C88.2897 20.9199 88.8008 20.7539 89.2109 20.4219C89.6276 20.0833 89.9401 19.6243 90.1484 19.0449C90.3633 18.459 90.4707 17.7949 90.4707 17.0527V16.8379C90.4707 16.0957 90.3633 15.4349 90.1484 14.8555C89.9401 14.2695 89.6276 13.8105 89.2109 13.4785C88.7943 13.14 88.2767 12.9707 87.6582 12.9707C87.0462 12.9707 86.5319 13.14 86.1152 13.4785C85.6986 13.8105 85.3861 14.2695 85.1777 14.8555C84.9694 15.4349 84.8652 16.0957 84.8652 16.8379V17.0527C84.8652 17.7949 84.9694 18.459 85.1777 19.0449C85.3861 19.6243 85.6986 20.0833 86.1152 20.4219C86.5384 20.7539 87.0592 20.9199 87.6777 20.9199Z" fill="black"/>
<path d="M74.7383 22.2188V20.9883L76.3301 20.7148V13.166L74.7383 12.8926V11.6523H78.0488L78.2148 13L78.2344 13.1855C78.5339 12.6452 78.9017 12.222 79.3379 11.916C79.7806 11.61 80.2852 11.457 80.8516 11.457C81.0534 11.457 81.2585 11.4766 81.4668 11.5156C81.6816 11.5482 81.8346 11.5807 81.9258 11.6133L81.6719 13.4004L80.334 13.3223C79.8262 13.2897 79.3997 13.4069 79.0547 13.6738C78.7096 13.9342 78.4427 14.2858 78.2539 14.7285V20.7148L79.8457 20.9883V22.2188H74.7383Z" fill="black"/>
<path d="M71.3594 22.3848C70.5781 22.3848 69.9564 22.1569 69.4941 21.7012C69.0384 21.2389 68.8105 20.5033 68.8105 19.4941V13.0781H67.1406V11.6523H68.8105V9.10352H70.7344V11.6523H73.0293V13.0781H70.7344V19.4941C70.7344 20.002 70.8353 20.3763 71.0371 20.6172C71.2389 20.8581 71.5091 20.9785 71.8477 20.9785C72.0755 20.9785 72.3294 20.959 72.6094 20.9199C72.8893 20.8743 73.1074 20.8353 73.2637 20.8027L73.5273 22.0625C73.2474 22.1471 72.9023 22.222 72.4922 22.2871C72.0885 22.3522 71.7109 22.3848 71.3594 22.3848Z" fill="black"/>
<path d="M54.8945 22.2188V20.9883L56.4863 20.7148V13.166L54.8945 12.8926V11.6523H58.2051L58.3418 13.2246C58.6934 12.6647 59.1328 12.2318 59.6602 11.9258C60.194 11.6133 60.7995 11.457 61.4766 11.457C62.6159 11.457 63.498 11.7923 64.123 12.4629C64.748 13.127 65.0605 14.1556 65.0605 15.5488V20.7148L66.6523 20.9883V22.2188H61.5449V20.9883L63.1367 20.7148V15.5879C63.1367 14.6569 62.9512 13.9961 62.5801 13.6055C62.2155 13.2148 61.6556 13.0195 60.9004 13.0195C60.347 13.0195 59.8555 13.153 59.4258 13.4199C59.0026 13.6868 58.6641 14.0514 58.4102 14.5137V20.7148L60.002 20.9883V22.2188H54.8945Z" fill="black"/>
<path d="M49.3574 22.4238C48.3809 22.4238 47.5312 22.2025 46.8086 21.7598C46.0859 21.3105 45.526 20.6888 45.1289 19.8945C44.7383 19.1003 44.543 18.1823 44.543 17.1406V16.7109C44.543 15.7083 44.748 14.8132 45.1582 14.0254C45.5749 13.2311 46.125 12.6061 46.8086 12.1504C47.4987 11.6882 48.2507 11.457 49.0645 11.457C50.015 11.457 50.8092 11.6523 51.4473 12.043C52.0918 12.4336 52.5768 12.9837 52.9023 13.6934C53.2279 14.3965 53.3906 15.2266 53.3906 16.1836V17.3848H46.5352L46.5059 17.4336C46.5189 18.1107 46.6361 18.7129 46.8574 19.2402C47.0853 19.7611 47.4108 20.1712 47.834 20.4707C48.2572 20.7702 48.765 20.9199 49.3574 20.9199C50.0085 20.9199 50.5781 20.8288 51.0664 20.6465C51.5612 20.4577 51.9876 20.2005 52.3457 19.875L53.0977 21.125C52.7201 21.4896 52.2188 21.7988 51.5938 22.0527C50.9753 22.3001 50.2298 22.4238 49.3574 22.4238ZM46.5938 15.8809H51.4668V15.627C51.4668 15.1191 51.3757 14.6667 51.1934 14.2695C51.0176 13.8659 50.7507 13.5501 50.3926 13.3223C50.041 13.0879 49.5983 12.9707 49.0645 12.9707C48.6348 12.9707 48.2441 13.0977 47.8926 13.3516C47.541 13.599 47.2513 13.9375 47.0234 14.3672C46.7956 14.7969 46.6458 15.2852 46.5742 15.832L46.5938 15.8809Z" fill="black"/>
<path d="M33 22.2188V20.7637L40.3926 9.50391H34.8652L34.6895 11.3398H33.1465V8H42.6094V9.41602L35.1777 20.7246H41.2227L41.3984 18.7031H42.9316V22.2188H33Z" fill="black"/>
<path d="M22 3C23.1046 3 24 3.89543 24 5V25C24 26.1046 23.1046 27 22 27H2C0.895431 27 3.22133e-08 26.1046 0 25V5C0 3.89543 0.895431 3 2 3H22ZM7.14648 8V11.3398H8.68945L8.86523 9.50391H14.3926L7 20.7637V22.2188H16.9316V18.7031H15.3984L15.2227 20.7246H9.17773L16.6094 9.41602V8H7.14648Z" fill="black"/>
</svg>
